<svg width="131" height="131" viewBox="0 0 131 131" fill="none" xmlns="http://www.w3.org/2000/svg">
<path d="M1.424 127V115.64H10V127H8.88V116.632H2.544V127H1.424ZM16.1739 127.16C15.3739 127.16 14.6592 126.963 14.0299 126.568C13.4112 126.173 12.9259 125.651 12.5739 125C12.2219 124.339 12.0459 123.624 12.0459 122.856C12.0459 122.077 12.2219 121.363 12.5739 120.712C12.9365 120.051 13.4272 119.523 14.0459 119.128C14.6752 118.723 15.3845 118.52 16.1739 118.52C16.9739 118.52 17.6832 118.723 18.3019 119.128C18.9312 119.523 19.4219 120.051 19.7739 120.712C20.1365 121.363 20.3179 122.077 20.3179 122.856C20.3179 123.624 20.1419 124.339 19.7899 125C19.4379 125.651 18.9472 126.173 18.3179 126.568C17.6992 126.963 16.9845 127.16 16.1739 127.16ZM13.1499 122.872C13.1499 123.491 13.2832 124.056 13.5499 124.568C13.8272 125.069 14.1952 125.469 14.6539 125.768C15.1125 126.056 15.6192 126.2 16.1739 126.2C16.7285 126.2 17.2352 126.051 17.6939 125.752C18.1525 125.453 18.5205 125.048 18.7979 124.536C19.0752 124.024 19.2139 123.459 19.2139 122.84C19.2139 122.221 19.0752 121.656 18.7979 121.144C18.5205 120.632 18.1525 120.227 17.6939 119.928C17.2352 119.629 16.7285 119.48 16.1739 119.48C15.6299 119.48 15.1285 119.635 14.6699 119.944C14.2112 120.243 13.8432 120.648 13.5659 121.16C13.2885 121.672 13.1499 122.243 13.1499 122.872ZM21.3375 127.048V126.056C21.6148 126.056 21.8655 125.981 22.0895 125.832C22.3242 125.683 22.5268 125.421 22.6975 125.048C22.8788 124.675 23.0228 124.157 23.1295 123.496C23.2362 122.835 23.3055 121.997 23.3375 120.984L23.4335 118.664H28.8415V127H27.7535V119.64H24.3935L24.3615 121.08C24.3082 122.627 24.1642 123.832 23.9295 124.696C23.6948 125.56 23.3588 126.168 22.9215 126.52C22.4948 126.861 21.9668 127.037 21.3375 127.048ZM34.8469 127.16C34.0469 127.16 33.3322 126.963 32.7029 126.568C32.0735 126.173 31.5775 125.645 31.2149 124.984C30.8522 124.323 30.6709 123.597 30.6709 122.808C30.6709 122.029 30.8469 121.315 31.1989 120.664C31.5615 120.013 32.0575 119.496 32.6869 119.112C33.3162 118.717 34.0309 118.52 34.8309 118.52C35.6522 118.52 36.3722 118.717 36.9909 119.112C37.6095 119.507 38.0895 120.029 38.4309 120.68C38.7829 121.32 38.9589 122.024 38.9589 122.792C38.9589 122.963 38.9535 123.107 38.9429 123.224H31.8069C31.8602 123.821 32.0309 124.355 32.3189 124.824C32.6069 125.283 32.9749 125.651 33.4229 125.928C33.8709 126.195 34.3615 126.328 34.8949 126.328C35.4389 126.328 35.9509 126.189 36.4309 125.912C36.9109 125.635 37.2522 125.272 37.4549 124.824L38.3989 125.08C38.2282 125.485 37.9615 125.848 37.5989 126.168C37.2469 126.477 36.8362 126.723 36.3669 126.904C35.8975 127.075 35.3909 127.16 34.8469 127.16ZM31.7749 122.44H37.9349C37.8922 121.843 37.7269 121.315 37.4389 120.856C37.1509 120.387 36.7829 120.024 36.3349 119.768C35.8869 119.501 35.3909 119.368 34.8469 119.368C34.3029 119.368 33.8069 119.501 33.3589 119.768C32.9109 120.024 32.5429 120.387 32.2549 120.856C31.9775 121.315 31.8175 121.843 31.7749 122.44ZM43.0535 127.096C42.2855 127.096 41.6242 126.952 41.0695 126.664C40.5255 126.365 40.1148 125.949 39.8375 125.416L40.7335 125.016C40.9362 125.389 41.2295 125.683 41.6135 125.896C41.9975 126.099 42.4615 126.2 43.0055 126.2C43.6562 126.2 44.1735 126.051 44.5575 125.752C44.9522 125.453 45.1495 125.053 45.1495 124.552C45.1495 124.104 44.9948 123.736 44.6855 123.448C44.3762 123.16 43.9495 123.016 43.4055 123.016H42.5575V122.264H43.4695C43.8215 122.264 44.1148 122.131 44.3495 121.864C44.5948 121.587 44.7175 121.245 44.7175 120.84C44.7175 120.424 44.5682 120.088 44.2695 119.832C43.9815 119.576 43.5548 119.448 42.9895 119.448C42.0722 119.448 41.4268 119.816 41.0535 120.552L40.2215 120.104C40.4668 119.613 40.8295 119.229 41.3095 118.952C41.7895 118.675 42.3602 118.536 43.0215 118.536C43.8108 118.536 44.4562 118.733 44.9575 119.128C45.4588 119.512 45.7095 120.045 45.7095 120.728C45.7095 121.123 45.6135 121.491 45.4215 121.832C45.2295 122.173 44.9628 122.424 44.6215 122.584C45.1122 122.744 45.4908 123.011 45.7575 123.384C46.0348 123.747 46.1735 124.179 46.1735 124.68C46.1735 125.437 45.8802 126.029 45.2935 126.456C44.7068 126.883 43.9602 127.096 43.0535 127.096ZM47.9809 127V118.664H49.0689V122.248H53.8369V118.664H54.9249V127H53.8369V123.224H49.0689V127H47.9809ZM57.309 127V118.664H58.397V121.608H60.285C61.2343 121.608 61.949 121.853 62.429 122.344C62.9197 122.824 63.165 123.459 63.165 124.248C63.165 124.76 63.0583 125.224 62.845 125.64C62.6317 126.056 62.317 126.387 61.901 126.632C61.485 126.877 60.973 127 60.365 127H57.309ZM64.685 127V118.68H65.773V127H64.685ZM58.397 126.136H60.221C60.8717 126.136 61.341 125.949 61.629 125.576C61.917 125.192 62.061 124.755 62.061 124.264C62.061 123.944 62.0023 123.651 61.885 123.384C61.7783 123.107 61.5863 122.888 61.309 122.728C61.0423 122.557 60.669 122.472 60.189 122.472H58.397V126.136ZM71.7688 127.16C70.9688 127.16 70.2541 126.963 69.6248 126.568C68.9954 126.173 68.4994 125.645 68.1368 124.984C67.7741 124.323 67.5928 123.597 67.5928 122.808C67.5928 122.029 67.7688 121.315 68.1208 120.664C68.4834 120.013 68.9794 119.496 69.6088 119.112C70.2381 118.717 70.9528 118.52 71.7528 118.52C72.5741 118.52 73.2941 118.717 73.9128 119.112C74.5314 119.507 75.0114 120.029 75.3528 120.68C75.7048 121.32 75.8808 122.024 75.8808 122.792C75.8808 122.963 75.8754 123.107 75.8648 123.224H68.7288C68.7821 123.821 68.9528 124.355 69.2408 124.824C69.5288 125.283 69.8968 125.651 70.3448 125.928C70.7928 126.195 71.2834 126.328 71.8168 126.328C72.3608 126.328 72.8728 126.189 73.3528 125.912C73.8328 125.635 74.1741 125.272 74.3768 124.824L75.3208 125.08C75.1501 125.485 74.8834 125.848 74.5208 126.168C74.1688 126.477 73.7581 126.723 73.2888 126.904C72.8194 127.075 72.3128 127.16 71.7688 127.16ZM68.6968 122.44H74.8568C74.8141 121.843 74.6488 121.315 74.3608 120.856C74.0728 120.387 73.7048 120.024 73.2568 119.768C72.8088 119.501 72.3128 119.368 71.7688 119.368C71.2248 119.368 70.7288 119.501 70.2808 119.768C69.8328 120.024 69.4648 120.387 69.1768 120.856C68.8994 121.315 68.7394 121.843 68.6968 122.44ZM85.2535 127.16C84.4428 127.16 83.7228 126.963 83.0935 126.568C82.4642 126.163 81.9682 125.635 81.6055 124.984C81.2428 124.323 81.0615 123.597 81.0615 122.808C81.0615 122.019 81.2375 121.304 81.5895 120.664C81.9415 120.013 82.4322 119.496 83.0615 119.112C83.6908 118.717 84.4162 118.52 85.2375 118.52C86.0162 118.52 86.6988 118.701 87.2855 119.064C87.8828 119.416 88.3308 119.896 88.6295 120.504L87.5735 120.84C87.3388 120.413 87.0082 120.083 86.5815 119.848C86.1655 119.603 85.7015 119.48 85.1895 119.48C84.6242 119.48 84.1122 119.624 83.6535 119.912C83.2055 120.2 82.8428 120.6 82.5655 121.112C82.2988 121.613 82.1655 122.179 82.1655 122.808C82.1655 123.437 82.3042 124.008 82.5815 124.52C82.8588 125.032 83.2268 125.443 83.6855 125.752C84.1442 126.051 84.6508 126.2 85.2055 126.2C85.5682 126.2 85.9202 126.136 86.2615 126.008C86.6028 125.88 86.8962 125.709 87.1415 125.496C87.3868 125.272 87.5522 125.032 87.6375 124.776L88.7095 125.096C88.5602 125.491 88.3148 125.848 87.9735 126.168C87.6322 126.477 87.2268 126.723 86.7575 126.904C86.2882 127.075 85.7868 127.16 85.2535 127.16ZM92.4988 127V119.64H89.5228V118.664H96.5628V119.64H93.5868V127H92.4988ZM97.3249 124.6C97.3249 124.088 97.4742 123.645 97.7729 123.272C98.0715 122.888 98.4822 122.589 99.0049 122.376C99.5382 122.163 100.152 122.056 100.845 122.056C101.25 122.056 101.672 122.093 102.109 122.168C102.546 122.232 102.936 122.323 103.277 122.44V121.736C103.277 121.032 103.069 120.472 102.653 120.056C102.237 119.64 101.661 119.432 100.925 119.432C100.488 119.432 100.05 119.517 99.6129 119.688C99.1755 119.848 98.7222 120.088 98.2529 120.408L97.8369 119.64C98.3809 119.267 98.9142 118.989 99.4369 118.808C99.9595 118.616 100.493 118.52 101.037 118.52C102.061 118.52 102.872 118.813 103.469 119.4C104.066 119.987 104.365 120.797 104.365 121.832V125.688C104.365 125.976 104.498 126.125 104.765 126.136V127C104.53 127.032 104.365 127.043 104.269 127.032C104.002 127.021 103.8 126.936 103.661 126.776C103.522 126.616 103.448 126.445 103.437 126.264L103.421 125.656C103.048 126.136 102.562 126.509 101.965 126.776C101.368 127.032 100.76 127.16 100.141 127.16C99.5969 127.16 99.1115 127.048 98.6849 126.824C98.2582 126.589 97.9222 126.28 97.6769 125.896C97.4422 125.501 97.3249 125.069 97.3249 124.6ZM102.909 125.24C103.154 124.952 103.277 124.685 103.277 124.44V123.224C102.541 122.936 101.773 122.792 100.973 122.792C100.194 122.792 99.5649 122.947 99.0849 123.256C98.6049 123.565 98.3649 123.987 98.3649 124.52C98.3649 124.979 98.5409 125.395 98.8929 125.768C99.2555 126.141 99.7569 126.328 100.397 126.328C100.92 126.328 101.405 126.227 101.853 126.024C102.312 125.821 102.664 125.56 102.909 125.24ZM108.655 127V119.64H105.679V118.664H112.719V119.64H109.743V127H108.655ZM114.184 127V118.664H115.272V121.608H117.432C118.381 121.608 119.096 121.853 119.576 122.344C120.067 122.824 120.312 123.459 120.312 124.248C120.312 124.76 120.205 125.224 119.992 125.64C119.779 126.056 119.464 126.387 119.048 126.632C118.632 126.877 118.12 127 117.512 127H114.184ZM115.272 126.136H117.368C118.019 126.136 118.488 125.949 118.776 125.576C119.064 125.192 119.208 124.755 119.208 124.264C119.208 123.944 119.149 123.651 119.032 123.384C118.925 123.107 118.733 122.888 118.456 122.728C118.189 122.557 117.816 122.472 117.336 122.472H115.272V126.136ZM121.997 127V118.68H123.085V125.528L128.157 118.664H129.133V127H128.045V120.264L123.053 127H121.997Z" fill="black"/>
<g filter="url(#filter0_d_2_324)">
<circle cx="66" cy="50" r="44" fill="white"/>
<circle cx="66" cy="50" r="43.5" stroke="#319F1C"/>
</g>
<path d="M81.4844 30H48.5156C46.5771 30 45 31.5771 45 33.5156V39.375H85V33.5156C85 31.5771 83.4229 30 81.4844 30ZM50.9375 35.8594C50.2903 35.8594 49.7656 35.3347 49.7656 34.6875C49.7656 34.0403 50.2903 33.5156 50.9375 33.5156C51.5847 33.5156 52.1094 34.0403 52.1094 34.6875C52.1094 35.3347 51.5847 35.8594 50.9375 35.8594ZM55.625 35.8594C54.9778 35.8594 54.4531 35.3347 54.4531 34.6875C54.4531 34.0403 54.9778 33.5156 55.625 33.5156C56.2722 33.5156 56.7969 34.0403 56.7969 34.6875C56.7969 35.3347 56.2722 35.8594 55.625 35.8594ZM60.3125 35.8594C59.6653 35.8594 59.1406 35.3347 59.1406 34.6875C59.1406 34.0403 59.6653 33.5156 60.3125 33.5156C60.9597 33.5156 61.4844 34.0403 61.4844 34.6875C61.4844 35.3347 60.9597 35.8594 60.3125 35.8594Z" fill="#319F1C"/>
<path d="M45 57.1094C45 58.6661 46.0174 59.9889 47.4219 60.4499V55.5469C47.4219 53.6084 48.999 52.0312 50.9375 52.0312H54.4531V47.7344C54.4531 45.7959 56.0302 44.2188 57.9688 44.2188H79.0625C81.001 44.2188 82.5781 45.7959 82.5781 47.7344V60.4499C83.9826 59.9889 85 58.6661 85 57.1094V41.7188H45V57.1094Z" fill="#319F1C"/>
<path d="M49.7656 55.5469V67.6562C49.7656 68.9507 50.8149 70 52.1094 70C53.4038 70 54.4531 68.9507 54.4531 67.6562V54.375H50.9375C50.2903 54.375 49.7656 54.8997 49.7656 55.5469Z" fill="#319F1C"/>
<path d="M63.4375 52.4219H73.5938V54.7656H63.4375V52.4219Z" fill="#319F1C"/>
<path d="M79.0625 46.5625H57.9688C57.3216 46.5625 56.7969 47.0872 56.7969 47.7344V52.0312V67.6562C56.7969 68.5098 56.5665 69.3099 56.1663 70H77.8906C79.1851 70 80.2344 68.9507 80.2344 67.6562V47.7344C80.2344 47.0872 79.7097 46.5625 79.0625 46.5625ZM74.7656 66.4844H62.2656C61.6184 66.4844 61.0938 65.9597 61.0938 65.3125C61.0938 64.6653 61.6184 64.1406 62.2656 64.1406H74.7656C75.4128 64.1406 75.9375 64.6653 75.9375 65.3125C75.9375 65.9597 75.4128 66.4844 74.7656 66.4844ZM74.7656 61.7969H62.2656C61.6184 61.7969 61.0938 61.2722 61.0938 60.625C61.0938 59.9778 61.6184 59.4531 62.2656 59.4531H74.7656C75.4128 59.4531 75.9375 59.9778 75.9375 60.625C75.9375 61.2722 75.4128 61.7969 74.7656 61.7969ZM75.9375 55.9375C75.9375 56.5847 75.4128 57.1094 74.7656 57.1094H62.2656C61.6184 57.1094 61.0938 56.5847 61.0938 55.9375V51.25C61.0938 50.6028 61.6184 50.0781 62.2656 50.0781H74.7656C75.4128 50.0781 75.9375 50.6028 75.9375 51.25V55.9375Z" fill="#319F1C"/>
<defs>
<filter id="filter0_d_2_324" x="16" y="0" width="104" height="104" filterUnits="userSpaceOnUse" color-interpolation-filters="sRGB">
<feFlood flood-opacity="0" result="BackgroundImageFix"/>
<feColorMatrix in="SourceAlpha" type="matrix" values="0 0 0 0 0 0 0 0 0 0 0 0 0 0 0 0 0 0 127 0" result="hardAlpha"/>
<feOffset dx="2" dy="2"/>
<feGaussianBlur stdDeviation="4"/>
<feColorMatrix type="matrix" values="0 0 0 0 0 0 0 0 0 0 0 0 0 0 0 0 0 0 0.25 0"/>
<feBlend mode="normal" in2="BackgroundImageFix" result="effect1_dropShadow_2_324"/>
<feBlend mode="normal" in="SourceGraphic" in2="effect1_dropShadow_2_324" result="shape"/>
</filter>
</defs>
</svg>
