<svg width="177" height="130" viewBox="0 0 177 130" fill="none" xmlns="http://www.w3.org/2000/svg">
<path d="M64.8116 126V114.64H66.6036V119.392H67.9316L71.4996 114.64H73.5476L69.3716 120.144L73.8516 126H71.6596L67.9316 121.04H66.6036V126H64.8116ZM78.5199 126.16C77.6559 126.16 76.8985 125.963 76.2479 125.568C75.5972 125.173 75.0905 124.651 74.7279 124C74.3652 123.339 74.1839 122.619 74.1839 121.84C74.1839 121.051 74.3652 120.325 74.7279 119.664C75.0905 119.003 75.5972 118.475 76.2479 118.08C76.8985 117.685 77.6612 117.488 78.5359 117.488C79.4105 117.488 80.1679 117.691 80.8079 118.096C81.4479 118.491 81.9385 119.013 82.2799 119.664C82.6319 120.315 82.8079 121.013 82.8079 121.76C82.8079 122.027 82.7919 122.24 82.7599 122.4H76.0559C76.0879 122.891 76.2212 123.323 76.4559 123.696C76.7012 124.059 77.0052 124.347 77.3679 124.56C77.7412 124.763 78.1465 124.864 78.5839 124.864C79.0532 124.864 79.4959 124.747 79.9119 124.512C80.3279 124.277 80.6159 123.968 80.7759 123.584L82.2799 124.016C81.9919 124.645 81.5119 125.163 80.8399 125.568C80.1785 125.963 79.4052 126.16 78.5199 126.16ZM76.0079 121.232H81.0639C81.0212 120.752 80.8825 120.331 80.6479 119.968C80.4132 119.595 80.1092 119.307 79.7359 119.104C79.3732 118.891 78.9679 118.784 78.5199 118.784C78.0825 118.784 77.6772 118.891 77.3039 119.104C76.9412 119.307 76.6425 119.595 76.4079 119.968C76.1732 120.331 76.0399 120.752 76.0079 121.232ZM84.2435 126V117.648H86.0035V123.648L90.2435 117.632H91.8435V126H90.0835V120.128L85.8915 126H84.2435ZM88.0515 116.768C87.2622 116.768 86.6488 116.571 86.2115 116.176C85.7848 115.781 85.5715 115.285 85.5715 114.688H86.7235C86.7235 114.997 86.8248 115.253 87.0275 115.456C87.2408 115.659 87.5822 115.76 88.0515 115.76C88.5102 115.76 88.8355 115.664 89.0275 115.472C89.2195 115.28 89.3422 115.019 89.3955 114.688H90.5475C90.5475 115.285 90.3288 115.781 89.8915 116.176C89.4648 116.571 88.8515 116.768 88.0515 116.768ZM97.7386 126.16C96.8746 126.16 96.1173 125.963 95.4666 125.568C94.816 125.163 94.3093 124.629 93.9466 123.968C93.584 123.307 93.4026 122.587 93.4026 121.808C93.4026 121.029 93.5786 120.315 93.9306 119.664C94.2933 119.003 94.7946 118.475 95.4346 118.08C96.0853 117.685 96.8533 117.488 97.7386 117.488C98.6026 117.488 99.344 117.68 99.9626 118.064C100.592 118.437 101.061 118.939 101.371 119.568L99.6586 120.112C99.4666 119.76 99.1946 119.488 98.8426 119.296C98.5013 119.093 98.1226 118.992 97.7066 118.992C97.2373 118.992 96.8106 119.115 96.4266 119.36C96.0533 119.595 95.7546 119.925 95.5306 120.352C95.3173 120.779 95.2106 121.264 95.2106 121.808C95.2106 122.352 95.3226 122.837 95.5466 123.264C95.7813 123.691 96.0853 124.032 96.4586 124.288C96.8426 124.533 97.264 124.656 97.7226 124.656C98.1493 124.656 98.5546 124.544 98.9386 124.32C99.3226 124.096 99.5786 123.824 99.7066 123.504L101.435 124.016C101.157 124.645 100.693 125.163 100.043 125.568C99.392 125.963 98.624 126.16 97.7386 126.16ZM102.884 126V117.632H104.644V120.384H106.228C107.22 120.384 107.977 120.635 108.5 121.136C109.023 121.637 109.284 122.299 109.284 123.12C109.284 123.952 109.033 124.64 108.532 125.184C108.031 125.728 107.305 126 106.356 126H102.884ZM110.66 126V117.648H112.42V126H110.66ZM104.644 124.64H106.084C106.596 124.64 106.969 124.496 107.204 124.208C107.439 123.909 107.556 123.557 107.556 123.152C107.556 122.757 107.444 122.416 107.22 122.128C107.007 121.84 106.623 121.696 106.068 121.696H104.644V124.64Z" fill="black"/>
<g filter="url(#filter0_d_2_305)">
<circle cx="89" cy="48" r="44" fill="#319F1C"/>
</g>
<circle cx="89" cy="48" r="38" fill="white"/>
<path d="M134.526 64.0262C133.088 64.0262 131.921 65.1926 131.921 66.6314V64.8946C131.921 63.4558 130.755 62.2894 129.316 62.2894C127.877 62.2894 126.711 63.4558 126.711 64.8946V63.1578C126.711 61.719 125.544 60.5526 124.105 60.5526C122.667 60.5526 121.5 61.719 121.5 63.1578V54.4736C121.5 53.0348 120.334 51.8684 118.895 51.8684C117.456 51.8684 116.29 53.0348 116.29 54.4736V76.184L110.259 73.1689C109.657 72.8674 108.992 72.7104 108.318 72.7103C106.965 72.7103 105.869 73.8067 105.869 75.1593V75.1697C105.867 75.821 106.125 76.446 106.586 76.9065L117.816 88.1368C120.176 90.494 123.375 91.8172 126.711 91.8154C132.466 91.8154 137.132 87.1497 137.132 81.3944V66.6314C137.132 65.1926 135.965 64.0262 134.526 64.0262Z" fill="white"/>
<path d="M122.369 61.2299V70.9735C122.369 71.4531 121.98 71.8419 121.5 71.8419V63.1577C121.497 62.4197 121.814 61.7164 122.369 61.2299Z" fill="white"/>
<path d="M127.579 62.9668V70.9736C127.579 71.4532 127.19 71.842 126.711 71.842V64.8948C126.707 64.1566 127.024 63.4532 127.579 62.9668Z" fill="white"/>
<path d="M132.79 64.7036V70.9735C132.79 71.4531 132.401 71.842 131.921 71.842V66.6315C131.918 65.8934 132.235 65.1901 132.79 64.7036Z" fill="white"/>
<path d="M126.711 92.6838C123.143 92.6939 119.719 91.2761 117.203 88.7464L105.973 77.5161C104.675 76.2175 104.676 74.1127 105.974 72.8149C106.596 72.1935 107.439 71.8437 108.318 71.8419C109.126 71.8426 109.923 72.0305 110.647 72.3907L115.421 74.7788V54.4737C115.421 52.5552 116.977 51 118.895 51C120.813 51 122.369 52.5552 122.369 54.4737V60.1514C124.03 59.1916 126.154 59.76 127.114 61.4211C127.222 61.6085 127.313 61.8056 127.385 62.0098C128.979 60.9425 131.136 61.3696 132.204 62.9637C132.366 63.2071 132.498 63.4702 132.595 63.7466C134.19 62.6799 136.347 63.1079 137.414 64.7025C137.795 65.2734 138 65.9446 138 66.6315V81.3945C137.992 87.6263 132.942 92.6762 126.711 92.6838ZM108.318 73.5787C107.441 73.5812 106.732 74.2939 106.735 75.1707C106.736 75.5899 106.903 75.9916 107.199 76.2882L118.43 87.5185C120.621 89.7212 123.603 90.9557 126.711 90.947C131.984 90.9403 136.257 86.6674 136.263 81.3944V66.6314C136.263 65.6722 135.486 64.8946 134.526 64.8946C133.567 64.8946 132.79 65.6722 132.79 66.6314V70.9735C132.79 71.4531 132.401 71.8419 131.921 71.8419C131.442 71.8419 131.053 71.4531 131.053 70.9735V64.8946C131.053 63.9353 130.275 63.1578 129.316 63.1578C128.357 63.1578 127.579 63.9353 127.579 64.8946V70.9735C127.579 71.4531 127.19 71.8419 126.711 71.8419C126.231 71.8419 125.842 71.4531 125.842 70.9735V63.1578C125.842 62.1985 125.065 61.421 124.105 61.421C123.146 61.421 122.369 62.1985 122.369 63.1578V70.9735C122.369 71.4531 121.98 71.8419 121.5 71.8419C121.021 71.8419 120.632 71.4531 120.632 70.9735V54.4737C120.632 53.5145 119.854 52.7369 118.895 52.7369C117.936 52.7369 117.158 53.5145 117.158 54.4737V76.184C117.158 76.6637 116.769 77.0525 116.29 77.0524C116.155 77.0524 116.021 77.0209 115.901 76.9604L109.863 73.9452C109.383 73.7058 108.854 73.5804 108.318 73.5787Z" fill="#807979"/>
<g clip-path="url(#clip0_2_305)">
<path d="M80.9411 48.1763V44.6469H78.5882V48.1763C78.5882 48.8251 79.116 49.3527 79.7647 49.3527C80.4134 49.3527 80.9411 48.8251 80.9411 48.1763Z" fill="#319F1C"/>
<path d="M104.039 34.0588H96.2353V32.8039C96.2353 30.901 94.6872 29.3529 92.7843 29.3529H83.2157C81.3128 29.3529 79.7647 30.901 79.7647 32.8039V34.0588H71.9608C69.7768 34.0588 68 35.8356 68 38.0196V45.8235H76.2353V42.2941H83.2941V45.8235H92.7059V42.2941H99.7647V45.8235H108V38.0196C108 35.8356 106.223 34.0588 104.039 34.0588ZM82.1176 34.0588V32.8039C82.1176 32.1984 82.6102 31.7058 83.2157 31.7058H92.7843C93.3898 31.7058 93.8824 32.1984 93.8824 32.8039V34.0588H82.1176Z" fill="#319F1C"/>
<path d="M97.4119 48.1763V44.6469H95.059V48.1763C95.059 48.8251 95.5867 49.3527 96.2354 49.3527C96.8842 49.3527 97.4119 48.8251 97.4119 48.1763Z" fill="#319F1C"/>
<path d="M96.2352 51.7059C94.2891 51.7059 92.7058 50.1227 92.7058 48.1765H83.294C83.294 50.1227 81.7107 51.7059 79.7646 51.7059C77.8185 51.7059 76.2352 50.1227 76.2352 48.1765H70.3528V60.6863C70.3528 62.8703 72.1296 64.6471 74.3136 64.6471H76.2352V54.0589H99.7646V64.6471H101.686C103.87 64.6471 105.647 62.8703 105.647 60.6863V48.1765H99.7646C99.7646 50.1227 98.1814 51.7059 96.2352 51.7059Z" fill="#319F1C"/>
<path d="M93.8823 59.9413H91.5294V56.4119H78.5882V64.6472H97.4117V56.4119H93.8823V59.9413Z" fill="#319F1C"/>
</g>
<defs>
<filter id="filter0_d_2_305" x="37" y="0" width="104" height="104" filterUnits="userSpaceOnUse" color-interpolation-filters="sRGB">
<feFlood flood-opacity="0" result="BackgroundImageFix"/>
<feColorMatrix in="SourceAlpha" type="matrix" values="0 0 0 0 0 0 0 0 0 0 0 0 0 0 0 0 0 0 127 0" result="hardAlpha"/>
<feOffset dy="4"/>
<feGaussianBlur stdDeviation="4"/>
<feColorMatrix type="matrix" values="0 0 0 0 0.391858 0 0 0 0 0.7375 0 0 0 0 0.270417 0 0 0 1 0"/>
<feBlend mode="normal" in2="BackgroundImageFix" result="effect1_dropShadow_2_305"/>
<feBlend mode="normal" in="SourceGraphic" in2="effect1_dropShadow_2_305" result="shape"/>
</filter>
<clipPath id="clip0_2_305">
<rect width="40" height="40" fill="white" transform="translate(68 27)"/>
</clipPath>
</defs>
</svg>
