<svg width="283" height="64" viewBox="0 0 283 64" fill="none" xmlns="http://www.w3.org/2000/svg">
<circle cx="32" cy="32" r="32" fill="#E4E4E4"/>
<path d="M77.04 38.144C76.116 38.144 75.282 37.952 74.538 37.568C73.806 37.172 73.23 36.626 72.81 35.93L74.052 35.174C74.352 35.678 74.754 36.074 75.258 36.362C75.762 36.638 76.344 36.776 77.004 36.776C77.88 36.776 78.558 36.56 79.038 36.128C79.53 35.696 79.776 35.12 79.776 34.4C79.776 33.716 79.548 33.158 79.092 32.726C78.648 32.282 78.012 32.06 77.184 32.06H75.87V30.782H77.202C77.838 30.782 78.348 30.584 78.732 30.188C79.128 29.78 79.326 29.276 79.326 28.676C79.326 28.052 79.116 27.542 78.696 27.146C78.276 26.75 77.694 26.552 76.95 26.552C76.326 26.552 75.78 26.69 75.312 26.966C74.844 27.23 74.478 27.596 74.214 28.064L73.026 27.254C73.434 26.582 73.968 26.054 74.628 25.67C75.288 25.274 76.086 25.076 77.022 25.076C78.186 25.076 79.122 25.382 79.83 25.994C80.538 26.606 80.892 27.428 80.892 28.46C80.892 29.084 80.736 29.66 80.424 30.188C80.124 30.704 79.674 31.094 79.074 31.358C79.818 31.562 80.394 31.952 80.802 32.528C81.21 33.104 81.414 33.776 81.414 34.544C81.414 35.3 81.222 35.948 80.838 36.488C80.466 37.028 79.95 37.442 79.29 37.73C78.642 38.006 77.892 38.144 77.04 38.144ZM82.7002 35.282C82.7002 34.682 82.8682 34.166 83.2042 33.734C83.5522 33.29 84.0262 32.948 84.6262 32.708C85.2262 32.468 85.9222 32.348 86.7142 32.348C87.1342 32.348 87.5782 32.384 88.0462 32.456C88.5142 32.516 88.9282 32.612 89.2882 32.744V32.06C89.2882 31.34 89.0722 30.776 88.6402 30.368C88.2082 29.948 87.5962 29.738 86.8042 29.738C86.2882 29.738 85.7902 29.834 85.3102 30.026C84.8422 30.206 84.3442 30.47 83.8162 30.818L83.2402 29.702C83.8522 29.282 84.4642 28.97 85.0762 28.766C85.6882 28.55 86.3242 28.442 86.9842 28.442C88.1842 28.442 89.1322 28.778 89.8282 29.45C90.5242 30.11 90.8722 31.034 90.8722 32.222V36.2C90.8722 36.572 91.0402 36.764 91.3762 36.776V38C91.2202 38.024 91.0822 38.042 90.9622 38.054C90.8542 38.066 90.7642 38.072 90.6922 38.072C90.3202 38.072 90.0382 37.97 89.8462 37.766C89.6662 37.562 89.5642 37.346 89.5402 37.118L89.5042 36.524C89.0962 37.052 88.5622 37.46 87.9022 37.748C87.2422 38.036 86.5882 38.18 85.9402 38.18C85.3162 38.18 84.7582 38.054 84.2662 37.802C83.7742 37.538 83.3902 37.19 83.1142 36.758C82.8382 36.314 82.7002 35.822 82.7002 35.282ZM88.8202 35.948C88.9642 35.78 89.0782 35.612 89.1622 35.444C89.2462 35.264 89.2882 35.114 89.2882 34.994V33.824C88.5202 33.524 87.7282 33.374 86.9122 33.374C86.1082 33.374 85.4542 33.536 84.9502 33.86C84.4582 34.172 84.2122 34.604 84.2122 35.156C84.2122 35.456 84.2902 35.75 84.4462 36.038C84.6142 36.314 84.8542 36.542 85.1662 36.722C85.4902 36.902 85.8862 36.992 86.3542 36.992C86.8462 36.992 87.3142 36.896 87.7582 36.704C88.2022 36.5 88.5562 36.248 88.8202 35.948ZM93.387 38V28.604H94.971V32.474H96.015L98.967 28.604H100.767L97.257 33.158L101.181 38H99.345L96.015 33.932H94.971V38H93.387ZM102.001 35.282C102.001 34.682 102.169 34.166 102.505 33.734C102.853 33.29 103.327 32.948 103.927 32.708C104.527 32.468 105.223 32.348 106.015 32.348C106.435 32.348 106.879 32.384 107.347 32.456C107.815 32.516 108.229 32.612 108.589 32.744V32.06C108.589 31.34 108.373 30.776 107.941 30.368C107.509 29.948 106.897 29.738 106.105 29.738C105.589 29.738 105.091 29.834 104.611 30.026C104.143 30.206 103.645 30.47 103.117 30.818L102.541 29.702C103.153 29.282 103.765 28.97 104.377 28.766C104.989 28.55 105.625 28.442 106.285 28.442C107.485 28.442 108.433 28.778 109.129 29.45C109.825 30.11 110.173 31.034 110.173 32.222V36.2C110.173 36.572 110.341 36.764 110.677 36.776V38C110.521 38.024 110.383 38.042 110.263 38.054C110.155 38.066 110.065 38.072 109.993 38.072C109.621 38.072 109.339 37.97 109.147 37.766C108.967 37.562 108.865 37.346 108.841 37.118L108.805 36.524C108.397 37.052 107.863 37.46 107.203 37.748C106.543 38.036 105.889 38.18 105.241 38.18C104.617 38.18 104.059 38.054 103.567 37.802C103.075 37.538 102.691 37.19 102.415 36.758C102.139 36.314 102.001 35.822 102.001 35.282ZM108.121 35.948C108.265 35.78 108.379 35.612 108.463 35.444C108.547 35.264 108.589 35.114 108.589 34.994V33.824C107.821 33.524 107.029 33.374 106.213 33.374C105.409 33.374 104.755 33.536 104.251 33.86C103.759 34.172 103.513 34.604 103.513 35.156C103.513 35.456 103.591 35.75 103.747 36.038C103.915 36.314 104.155 36.542 104.467 36.722C104.791 36.902 105.187 36.992 105.655 36.992C106.147 36.992 106.615 36.896 107.059 36.704C107.503 36.5 107.857 36.248 108.121 35.948ZM115.64 38.126C114.728 38.126 113.954 37.958 113.318 37.622C112.694 37.274 112.214 36.794 111.878 36.182L113.174 35.606C113.39 35.99 113.696 36.29 114.092 36.506C114.5 36.722 114.992 36.83 115.568 36.83C116.252 36.83 116.792 36.68 117.188 36.38C117.584 36.08 117.782 35.678 117.782 35.174C117.782 34.718 117.62 34.352 117.296 34.076C116.984 33.788 116.54 33.638 115.964 33.626H115.01V32.582H116.018C116.402 32.582 116.714 32.45 116.954 32.186C117.206 31.91 117.332 31.568 117.332 31.16C117.332 30.74 117.182 30.404 116.882 30.152C116.582 29.888 116.132 29.756 115.532 29.756C114.584 29.756 113.906 30.14 113.498 30.908L112.292 30.26C112.592 29.696 113.024 29.258 113.588 28.946C114.164 28.622 114.836 28.46 115.604 28.46C116.528 28.46 117.284 28.682 117.872 29.126C118.46 29.558 118.754 30.17 118.754 30.962C118.754 31.406 118.646 31.82 118.43 32.204C118.226 32.576 117.92 32.858 117.512 33.05C118.076 33.218 118.508 33.512 118.808 33.932C119.108 34.34 119.258 34.826 119.258 35.39C119.258 36.254 118.916 36.926 118.232 37.406C117.56 37.886 116.696 38.126 115.64 38.126ZM120.423 35.282C120.423 34.682 120.591 34.166 120.927 33.734C121.275 33.29 121.749 32.948 122.349 32.708C122.949 32.468 123.645 32.348 124.437 32.348C124.857 32.348 125.301 32.384 125.769 32.456C126.237 32.516 126.651 32.612 127.011 32.744V32.06C127.011 31.34 126.795 30.776 126.363 30.368C125.931 29.948 125.319 29.738 124.527 29.738C124.011 29.738 123.513 29.834 123.033 30.026C122.565 30.206 122.067 30.47 121.539 30.818L120.963 29.702C121.575 29.282 122.187 28.97 122.799 28.766C123.411 28.55 124.047 28.442 124.707 28.442C125.907 28.442 126.855 28.778 127.551 29.45C128.247 30.11 128.595 31.034 128.595 32.222V36.2C128.595 36.572 128.763 36.764 129.099 36.776V38C128.943 38.024 128.805 38.042 128.685 38.054C128.577 38.066 128.487 38.072 128.415 38.072C128.043 38.072 127.761 37.97 127.569 37.766C127.389 37.562 127.287 37.346 127.263 37.118L127.227 36.524C126.819 37.052 126.285 37.46 125.625 37.748C124.965 38.036 124.311 38.18 123.663 38.18C123.039 38.18 122.481 38.054 121.989 37.802C121.497 37.538 121.113 37.19 120.837 36.758C120.561 36.314 120.423 35.822 120.423 35.282ZM126.543 35.948C126.687 35.78 126.801 35.612 126.885 35.444C126.969 35.264 127.011 35.114 127.011 34.994V33.824C126.243 33.524 125.451 33.374 124.635 33.374C123.831 33.374 123.177 33.536 122.673 33.86C122.181 34.172 121.935 34.604 121.935 35.156C121.935 35.456 122.013 35.75 122.169 36.038C122.337 36.314 122.577 36.542 122.889 36.722C123.213 36.902 123.609 36.992 124.077 36.992C124.569 36.992 125.037 36.896 125.481 36.704C125.925 36.5 126.279 36.248 126.543 35.948ZM133.308 38V30.008H130.068V28.604H138.132V30.008H134.892V38H133.308ZM139.705 38V28.604H141.289V31.808H143.629C144.733 31.808 145.567 32.09 146.131 32.654C146.707 33.206 146.995 33.932 146.995 34.832C146.995 35.732 146.719 36.488 146.167 37.1C145.615 37.7 144.805 38 143.737 38H139.705ZM141.289 36.758H143.521C144.181 36.758 144.655 36.572 144.943 36.2C145.243 35.816 145.393 35.372 145.393 34.868C145.393 34.376 145.255 33.95 144.979 33.59C144.703 33.23 144.205 33.05 143.485 33.05H141.289V36.758ZM152.754 34.5986L154.336 34.3877C154.518 35.2842 154.825 35.9316 155.259 36.3301C155.698 36.7227 156.231 36.9189 156.858 36.9189C157.603 36.9189 158.229 36.6611 158.739 36.1455C159.255 35.6299 159.513 34.9912 159.513 34.2295C159.513 33.5029 159.275 32.9053 158.801 32.4365C158.326 31.9619 157.723 31.7246 156.99 31.7246C156.691 31.7246 156.319 31.7832 155.874 31.9004L156.05 30.5117C156.155 30.5234 156.24 30.5293 156.305 30.5293C156.979 30.5293 157.585 30.3535 158.124 30.002C158.663 29.6504 158.933 29.1084 158.933 28.376C158.933 27.7959 158.736 27.3154 158.344 26.9346C157.951 26.5537 157.444 26.3633 156.823 26.3633C156.208 26.3633 155.695 26.5566 155.285 26.9434C154.875 27.3301 154.611 27.9102 154.494 28.6836L152.912 28.4023C153.105 27.3418 153.545 26.5215 154.23 25.9414C154.916 25.3555 155.769 25.0625 156.788 25.0625C157.491 25.0625 158.139 25.2148 158.73 25.5195C159.322 25.8184 159.773 26.2285 160.084 26.75C160.4 27.2715 160.559 27.8252 160.559 28.4111C160.559 28.9678 160.409 29.4746 160.11 29.9316C159.812 30.3887 159.369 30.752 158.783 31.0215C159.545 31.1973 160.137 31.5635 160.559 32.1201C160.98 32.6709 161.191 33.3623 161.191 34.1943C161.191 35.3193 160.781 36.2744 159.961 37.0596C159.141 37.8389 158.104 38.2285 156.85 38.2285C155.719 38.2285 154.778 37.8916 154.028 37.2178C153.284 36.5439 152.859 35.6709 152.754 34.5986ZM163.406 38V25.1152H167.845C168.847 25.1152 169.611 25.1768 170.139 25.2998C170.877 25.4697 171.507 25.7773 172.028 26.2227C172.708 26.7969 173.215 27.5322 173.549 28.4287C173.889 29.3193 174.059 30.3389 174.059 31.4873C174.059 32.4658 173.944 33.333 173.716 34.0889C173.487 34.8447 173.194 35.4717 172.837 35.9697C172.479 36.4619 172.087 36.8516 171.659 37.1387C171.237 37.4199 170.725 37.6338 170.121 37.7803C169.523 37.9268 168.835 38 168.056 38H163.406ZM165.111 36.4795H167.862C168.712 36.4795 169.377 36.4004 169.857 36.2422C170.344 36.084 170.73 35.8613 171.018 35.5742C171.422 35.1699 171.735 34.6279 171.958 33.9482C172.187 33.2627 172.301 32.4336 172.301 31.4609C172.301 30.1133 172.078 29.0791 171.633 28.3584C171.193 27.6318 170.657 27.1455 170.024 26.8994C169.567 26.7236 168.832 26.6357 167.818 26.6357H165.111V36.4795ZM176.177 33.806V32.366H181.487V33.806H176.177ZM183.897 38V28.604H185.535L189.027 34.76L192.537 28.604H194.139V38H192.627V30.89L189.531 36.326H188.523L185.409 30.89V38H183.897ZM195.956 35.282C195.956 34.682 196.124 34.166 196.46 33.734C196.808 33.29 197.282 32.948 197.882 32.708C198.482 32.468 199.178 32.348 199.97 32.348C200.39 32.348 200.834 32.384 201.302 32.456C201.77 32.516 202.184 32.612 202.544 32.744V32.06C202.544 31.34 202.328 30.776 201.896 30.368C201.464 29.948 200.852 29.738 200.06 29.738C199.544 29.738 199.046 29.834 198.566 30.026C198.098 30.206 197.6 30.47 197.072 30.818L196.496 29.702C197.108 29.282 197.72 28.97 198.332 28.766C198.944 28.55 199.58 28.442 200.24 28.442C201.44 28.442 202.388 28.778 203.084 29.45C203.78 30.11 204.128 31.034 204.128 32.222V36.2C204.128 36.572 204.296 36.764 204.632 36.776V38C204.476 38.024 204.338 38.042 204.218 38.054C204.11 38.066 204.02 38.072 203.948 38.072C203.576 38.072 203.294 37.97 203.102 37.766C202.922 37.562 202.82 37.346 202.796 37.118L202.76 36.524C202.352 37.052 201.818 37.46 201.158 37.748C200.498 38.036 199.844 38.18 199.196 38.18C198.572 38.18 198.014 38.054 197.522 37.802C197.03 37.538 196.646 37.19 196.37 36.758C196.094 36.314 195.956 35.822 195.956 35.282ZM202.076 35.948C202.22 35.78 202.334 35.612 202.418 35.444C202.502 35.264 202.544 35.114 202.544 34.994V33.824C201.776 33.524 200.984 33.374 200.168 33.374C199.364 33.374 198.71 33.536 198.206 33.86C197.714 34.172 197.468 34.604 197.468 35.156C197.468 35.456 197.546 35.75 197.702 36.038C197.87 36.314 198.11 36.542 198.422 36.722C198.746 36.902 199.142 36.992 199.61 36.992C200.102 36.992 200.57 36.896 201.014 36.704C201.458 36.5 201.812 36.248 202.076 35.948ZM206.643 38V28.604H208.227V32.474H209.271L212.223 28.604H214.023L210.513 33.158L214.437 38H212.601L209.271 33.932H208.227V38H206.643ZM219.661 38.18C218.725 38.18 217.897 37.958 217.177 37.514C216.457 37.07 215.893 36.476 215.485 35.732C215.077 34.988 214.873 34.178 214.873 33.302C214.873 32.414 215.077 31.604 215.485 30.872C215.893 30.14 216.457 29.552 217.177 29.108C217.909 28.664 218.743 28.442 219.679 28.442C220.627 28.442 221.449 28.67 222.145 29.126C222.853 29.57 223.399 30.158 223.783 30.89C224.179 31.61 224.377 32.39 224.377 33.23C224.377 33.494 224.365 33.698 224.341 33.842H216.547C216.595 34.454 216.763 35 217.051 35.48C217.351 35.948 217.735 36.32 218.203 36.596C218.671 36.86 219.175 36.992 219.715 36.992C220.291 36.992 220.831 36.848 221.335 36.56C221.851 36.272 222.205 35.894 222.397 35.426L223.765 35.804C223.465 36.5 222.943 37.07 222.199 37.514C221.455 37.958 220.609 38.18 219.661 38.18ZM216.493 32.744H222.901C222.853 32.132 222.679 31.592 222.379 31.124C222.079 30.656 221.695 30.29 221.227 30.026C220.759 29.762 220.243 29.63 219.679 29.63C219.127 29.63 218.617 29.762 218.149 30.026C217.681 30.29 217.297 30.656 216.997 31.124C216.709 31.592 216.541 32.132 216.493 32.744ZM228.423 38V30.008H225.183V28.604H233.247V30.008H230.007V38H228.423ZM238.347 40.214V36.596H238.545C238.893 36.596 239.205 36.452 239.481 36.164C239.769 35.864 240.003 35.336 240.183 34.58C240.363 33.812 240.471 32.726 240.507 31.322L240.597 28.604H246.987V36.596H248.265V40.214H246.861V38H239.751V40.214H238.347ZM240.759 36.596H245.403V30.008H242.001L241.947 31.466C241.899 33.002 241.773 34.166 241.569 34.958C241.377 35.75 241.107 36.296 240.759 36.596ZM254.13 38.18C253.194 38.18 252.366 37.958 251.646 37.514C250.938 37.058 250.386 36.464 249.99 35.732C249.594 34.988 249.396 34.184 249.396 33.32C249.396 32.444 249.594 31.64 249.99 30.908C250.398 30.164 250.956 29.57 251.664 29.126C252.384 28.67 253.206 28.442 254.13 28.442C255.066 28.442 255.888 28.67 256.596 29.126C257.316 29.57 257.874 30.164 258.27 30.908C258.678 31.64 258.882 32.444 258.882 33.32C258.882 34.184 258.678 34.988 258.27 35.732C257.874 36.464 257.322 37.058 256.614 37.514C255.906 37.958 255.078 38.18 254.13 38.18ZM251.016 33.338C251.016 33.986 251.154 34.574 251.43 35.102C251.718 35.63 252.096 36.05 252.564 36.362C253.032 36.662 253.554 36.812 254.13 36.812C254.706 36.812 255.228 36.656 255.696 36.344C256.176 36.032 256.554 35.612 256.83 35.084C257.118 34.544 257.262 33.95 257.262 33.302C257.262 32.654 257.118 32.066 256.83 31.538C256.554 31.01 256.176 30.59 255.696 30.278C255.228 29.966 254.706 29.81 254.13 29.81C253.554 29.81 253.032 29.972 252.564 30.296C252.096 30.608 251.718 31.028 251.43 31.556C251.154 32.084 251.016 32.678 251.016 33.338ZM260.783 38V28.604H262.421L265.913 34.76L269.423 28.604H271.025V38H269.513V30.89L266.417 36.326H265.409L262.295 30.89V38H260.783ZM272.843 35.282C272.843 34.682 273.011 34.166 273.347 33.734C273.695 33.29 274.169 32.948 274.769 32.708C275.369 32.468 276.065 32.348 276.857 32.348C277.277 32.348 277.721 32.384 278.189 32.456C278.657 32.516 279.071 32.612 279.431 32.744V32.06C279.431 31.34 279.215 30.776 278.783 30.368C278.351 29.948 277.739 29.738 276.947 29.738C276.431 29.738 275.933 29.834 275.453 30.026C274.985 30.206 274.487 30.47 273.959 30.818L273.383 29.702C273.995 29.282 274.607 28.97 275.219 28.766C275.831 28.55 276.467 28.442 277.127 28.442C278.327 28.442 279.275 28.778 279.971 29.45C280.667 30.11 281.015 31.034 281.015 32.222V36.2C281.015 36.572 281.183 36.764 281.519 36.776V38C281.363 38.024 281.225 38.042 281.105 38.054C280.997 38.066 280.907 38.072 280.835 38.072C280.463 38.072 280.181 37.97 279.989 37.766C279.809 37.562 279.707 37.346 279.683 37.118L279.647 36.524C279.239 37.052 278.705 37.46 278.045 37.748C277.385 38.036 276.731 38.18 276.083 38.18C275.459 38.18 274.901 38.054 274.409 37.802C273.917 37.538 273.533 37.19 273.257 36.758C272.981 36.314 272.843 35.822 272.843 35.282ZM278.963 35.948C279.107 35.78 279.221 35.612 279.305 35.444C279.389 35.264 279.431 35.114 279.431 34.994V33.824C278.663 33.524 277.871 33.374 277.055 33.374C276.251 33.374 275.597 33.536 275.093 33.86C274.601 34.172 274.355 34.604 274.355 35.156C274.355 35.456 274.433 35.75 274.589 36.038C274.757 36.314 274.997 36.542 275.309 36.722C275.633 36.902 276.029 36.992 276.497 36.992C276.989 36.992 277.457 36.896 277.901 36.704C278.345 36.5 278.699 36.248 278.963 35.948Z" fill="black"/>
<circle cx="32" cy="32" r="25" fill="white"/>
<path d="M30.6875 39.8125C30.075 39.3525 29.1875 39.7875 29.1875 40.5625V41.42C28.42 41.3775 27.67 41.3212 26.9588 41.2425C20.865 40.615 18.875 39.13 18.875 38.6875C18.875 38.5525 19.2863 37.9162 21.285 37.2512C21.7 37.155 22.0063 36.7825 22.0063 36.3375C22.0063 35.7212 21.3588 35.2562 20.7713 35.4462C18.2688 36.265 17 37.355 17 38.6875C17 41.77 23.83 42.805 26.76 43.1075C27.535 43.1925 28.3488 43.255 29.1875 43.3V44.3125C29.1875 45.0875 30.075 45.5212 30.6875 45.0625L33.1875 43.1875C33.685 42.8137 33.6875 42.0625 33.1875 41.6875L30.6875 39.8125Z" fill="#319F1C"/>
<path d="M43.2225 35.4462C42.7275 35.285 42.2013 35.555 42.04 36.0475C41.88 36.54 42.1488 37.0687 42.6413 37.23C44.6688 37.89 45.125 38.52 45.125 38.6887C45.125 39.2425 42.5538 40.7862 36.19 41.3175C35.6737 41.3612 35.2912 41.8137 35.3337 42.33C35.375 42.8237 35.7975 43.2237 36.3462 43.1862C39.5488 42.9162 47 41.9425 47 38.6875C47 37.3537 45.7288 36.2625 43.2225 35.4462Z" fill="#319F1C"/>
<path d="M31.9999 19L40.7499 22.75L31.9999 26.5L23.2499 22.75L31.9999 19Z" fill="#319F1C"/>
<path d="M33.2501 28.6837V35.9637L40.7501 32.75V25.47L33.2501 28.6837Z" fill="#319F1C"/>
<path d="M30.7499 28.6837L23.2499 25.47V32.75L30.7499 35.9637V28.6837Z" fill="#319F1C"/>
<line x1="72" y1="48.5" x2="283" y2="48.5" stroke="black"/>
</svg>
