<svg width="280" height="74" viewBox="0 0 280 74" fill="none" xmlns="http://www.w3.org/2000/svg">
<path d="M89.122 23.906H85.404V27.536H82.016V23.906H78.276V20.694H82.016V17.064H85.404V20.694H89.122V23.906ZM103.457 14.6V17.328L98.0234 30H93.2714L98.4634 18.054H94.4154V20.43H90.6974V14.6H103.457ZM114.652 34.268C113.743 32.948 113.039 31.408 112.54 29.648C112.056 27.8733 111.814 25.9813 111.814 23.972C111.814 21.9627 112.056 20.078 112.54 18.318C113.039 16.5433 113.743 14.996 114.652 13.676H118.656C117.703 15.3627 117.006 17.042 116.566 18.714C116.126 20.3713 115.906 22.124 115.906 23.972C115.906 25.82 116.126 27.58 116.566 29.252C117.006 30.9093 117.703 32.5813 118.656 34.268H114.652ZM124.995 14.292C127.21 14.292 128.955 14.9447 130.231 16.25C131.507 17.5553 132.145 19.4327 132.145 21.882C132.145 23.642 131.801 25.16 131.111 26.436C130.437 27.6973 129.476 28.658 128.229 29.318C126.997 29.978 125.567 30.308 123.939 30.308C123.074 30.308 122.245 30.2053 121.453 30C120.661 29.8093 119.987 29.538 119.429 29.186L121.013 26.062C121.761 26.59 122.707 26.854 123.851 26.854C124.951 26.854 125.839 26.5533 126.513 25.952C127.203 25.336 127.606 24.4487 127.723 23.29C126.843 24.038 125.692 24.412 124.269 24.412C123.301 24.412 122.414 24.214 121.607 23.818C120.801 23.4073 120.155 22.8353 119.671 22.102C119.202 21.354 118.967 20.5033 118.967 19.55C118.967 18.5087 119.231 17.592 119.759 16.8C120.302 15.9933 121.028 15.3773 121.937 14.952C122.861 14.512 123.881 14.292 124.995 14.292ZM125.303 21.288C125.934 21.288 126.447 21.112 126.843 20.76C127.239 20.3933 127.437 19.9167 127.437 19.33C127.437 18.758 127.239 18.296 126.843 17.944C126.462 17.5773 125.941 17.394 125.281 17.394C124.665 17.394 124.159 17.57 123.763 17.922C123.382 18.274 123.191 18.7507 123.191 19.352C123.191 19.9387 123.382 20.408 123.763 20.76C124.159 21.112 124.673 21.288 125.303 21.288ZM140.078 14.6V30H135.722V17.966H132.862V14.6H140.078ZM148.158 20.21C150.314 20.21 151.906 20.65 152.932 21.53C153.974 22.41 154.494 23.5833 154.494 25.05C154.494 26.0033 154.245 26.8833 153.746 27.69C153.262 28.482 152.514 29.12 151.502 29.604C150.505 30.0733 149.266 30.308 147.784 30.308C146.699 30.308 145.621 30.176 144.55 29.912C143.494 29.648 142.585 29.274 141.822 28.79L143.384 25.512C144 25.9227 144.675 26.238 145.408 26.458C146.156 26.678 146.904 26.788 147.652 26.788C148.4 26.788 148.994 26.6487 149.434 26.37C149.889 26.0767 150.116 25.6733 150.116 25.16C150.116 24.6467 149.896 24.258 149.456 23.994C149.016 23.73 148.239 23.598 147.124 23.598H142.944L143.714 14.6H153.526V17.966H147.322L147.124 20.21H148.158ZM154.966 34.268C155.919 32.5813 156.616 30.9093 157.056 29.252C157.496 27.58 157.716 25.82 157.716 23.972C157.716 22.124 157.496 20.3713 157.056 18.714C156.616 17.042 155.919 15.3627 154.966 13.676H158.97C159.879 14.996 160.576 16.5433 161.06 18.318C161.558 20.078 161.808 21.9627 161.808 23.972C161.808 25.9813 161.558 27.8733 161.06 29.648C160.576 31.408 159.879 32.948 158.97 34.268H154.966ZM176.881 14.6V30H172.525V17.966H169.665V14.6H176.881ZM187.073 20.188C188.041 20.188 188.929 20.3933 189.735 20.804C190.542 21.2 191.18 21.772 191.649 22.52C192.133 23.2533 192.375 24.0967 192.375 25.05C192.375 26.0913 192.104 27.0153 191.561 27.822C191.033 28.614 190.307 29.23 189.383 29.67C188.474 30.0953 187.455 30.308 186.325 30.308C184.125 30.308 182.387 29.6553 181.111 28.35C179.835 27.0447 179.197 25.1673 179.197 22.718C179.197 20.958 179.535 19.4473 180.209 18.186C180.899 16.91 181.859 15.942 183.091 15.282C184.323 14.622 185.753 14.292 187.381 14.292C188.261 14.292 189.097 14.3873 189.889 14.578C190.681 14.7687 191.356 15.0473 191.913 15.414L190.329 18.538C189.581 18.01 188.635 17.746 187.491 17.746C186.377 17.746 185.475 18.054 184.785 18.67C184.096 19.286 183.7 20.1733 183.597 21.332C184.477 20.5693 185.636 20.188 187.073 20.188ZM186.061 27.206C186.677 27.206 187.176 27.03 187.557 26.678C187.953 26.326 188.151 25.8493 188.151 25.248C188.151 24.6613 187.953 24.192 187.557 23.84C187.176 23.488 186.67 23.312 186.039 23.312C185.409 23.312 184.895 23.4953 184.499 23.862C184.103 24.214 183.905 24.6833 183.905 25.27C183.905 25.842 184.096 26.3113 184.477 26.678C184.873 27.03 185.401 27.206 186.061 27.206ZM204.572 21.882C205.276 22.2927 205.819 22.7987 206.2 23.4C206.582 24.0013 206.772 24.6907 206.772 25.468C206.772 26.436 206.494 27.2867 205.936 28.02C205.379 28.7533 204.594 29.318 203.582 29.714C202.57 30.11 201.404 30.308 200.084 30.308C198.764 30.308 197.598 30.11 196.586 29.714C195.574 29.318 194.79 28.7533 194.232 28.02C193.675 27.2867 193.396 26.436 193.396 25.468C193.396 24.6907 193.587 24.0013 193.968 23.4C194.35 22.7987 194.892 22.2927 195.596 21.882C195.068 21.5153 194.658 21.068 194.364 20.54C194.086 20.012 193.946 19.4253 193.946 18.78C193.946 17.8853 194.203 17.1007 194.716 16.426C195.23 15.7367 195.948 15.2087 196.872 14.842C197.811 14.4753 198.882 14.292 200.084 14.292C201.287 14.292 202.35 14.4753 203.274 14.842C204.213 15.2087 204.939 15.7367 205.452 16.426C205.966 17.1007 206.222 17.8853 206.222 18.78C206.222 19.4253 206.076 20.012 205.782 20.54C205.504 21.068 205.1 21.5153 204.572 21.882ZM200.084 17.35C199.542 17.35 199.102 17.4967 198.764 17.79C198.427 18.0687 198.258 18.4647 198.258 18.978C198.258 19.4767 198.42 19.8727 198.742 20.166C199.08 20.4447 199.527 20.584 200.084 20.584C200.642 20.584 201.089 20.4447 201.426 20.166C201.764 19.8727 201.932 19.4767 201.932 18.978C201.932 18.4647 201.764 18.0687 201.426 17.79C201.089 17.4967 200.642 17.35 200.084 17.35ZM200.084 27.25C200.788 27.25 201.346 27.0813 201.756 26.744C202.182 26.392 202.394 25.9227 202.394 25.336C202.394 24.7493 202.182 24.2873 201.756 23.95C201.346 23.598 200.788 23.422 200.084 23.422C199.38 23.422 198.816 23.598 198.39 23.95C197.98 24.2873 197.774 24.7493 197.774 25.336C197.774 25.9227 197.98 26.392 198.39 26.744C198.816 27.0813 199.38 27.25 200.084 27.25ZM208.509 22.124H214.933V25.336H208.509V22.124ZM222.494 20.21C224.65 20.21 226.242 20.65 227.268 21.53C228.31 22.41 228.83 23.5833 228.83 25.05C228.83 26.0033 228.581 26.8833 228.082 27.69C227.598 28.482 226.85 29.12 225.838 29.604C224.841 30.0733 223.602 30.308 222.12 30.308C221.035 30.308 219.957 30.176 218.886 29.912C217.83 29.648 216.921 29.274 216.158 28.79L217.72 25.512C218.336 25.9227 219.011 26.238 219.744 26.458C220.492 26.678 221.24 26.788 221.988 26.788C222.736 26.788 223.33 26.6487 223.77 26.37C224.225 26.0767 224.452 25.6733 224.452 25.16C224.452 24.6467 224.232 24.258 223.792 23.994C223.352 23.73 222.575 23.598 221.46 23.598H217.28L218.05 14.6H227.862V17.966H221.658L221.46 20.21H222.494ZM235.75 20.21C237.906 20.21 239.498 20.65 240.524 21.53C241.566 22.41 242.086 23.5833 242.086 25.05C242.086 26.0033 241.837 26.8833 241.338 27.69C240.854 28.482 240.106 29.12 239.094 29.604C238.097 30.0733 236.858 30.308 235.376 30.308C234.291 30.308 233.213 30.176 232.142 29.912C231.086 29.648 230.177 29.274 229.414 28.79L230.976 25.512C231.592 25.9227 232.267 26.238 233 26.458C233.748 26.678 234.496 26.788 235.244 26.788C235.992 26.788 236.586 26.6487 237.026 26.37C237.481 26.0767 237.708 25.6733 237.708 25.16C237.708 24.6467 237.488 24.258 237.048 23.994C236.608 23.73 235.831 23.598 234.716 23.598H230.536L231.306 14.6H241.118V17.966H234.914L234.716 20.21H235.75ZM243.658 22.124H250.082V25.336H243.658V22.124ZM257.643 20.21C259.799 20.21 261.39 20.65 262.417 21.53C263.458 22.41 263.979 23.5833 263.979 25.05C263.979 26.0033 263.73 26.8833 263.231 27.69C262.747 28.482 261.999 29.12 260.987 29.604C259.99 30.0733 258.75 30.308 257.269 30.308C256.184 30.308 255.106 30.176 254.035 29.912C252.979 29.648 252.07 29.274 251.307 28.79L252.869 25.512C253.485 25.9227 254.16 26.238 254.893 26.458C255.641 26.678 256.389 26.788 257.137 26.788C257.885 26.788 258.479 26.6487 258.919 26.37C259.374 26.0767 259.601 25.6733 259.601 25.16C259.601 24.6467 259.381 24.258 258.941 23.994C258.501 23.73 257.724 23.598 256.609 23.598H252.429L253.199 14.6H263.011V17.966H256.807L256.609 20.21H257.643ZM272.04 30.308C270.72 30.308 269.547 29.9927 268.52 29.362C267.493 28.7313 266.687 27.8147 266.1 26.612C265.528 25.3947 265.242 23.9573 265.242 22.3C265.242 20.6427 265.528 19.2127 266.1 18.01C266.687 16.7927 267.493 15.8687 268.52 15.238C269.547 14.6073 270.72 14.292 272.04 14.292C273.345 14.292 274.511 14.6073 275.538 15.238C276.565 15.8687 277.364 16.7927 277.936 18.01C278.523 19.2127 278.816 20.6427 278.816 22.3C278.816 23.9573 278.523 25.3947 277.936 26.612C277.364 27.8147 276.565 28.7313 275.538 29.362C274.511 29.9927 273.345 30.308 272.04 30.308ZM272.04 26.744C272.773 26.744 273.353 26.392 273.778 25.688C274.218 24.9693 274.438 23.84 274.438 22.3C274.438 20.76 274.218 19.638 273.778 18.934C273.353 18.2153 272.773 17.856 272.04 17.856C271.292 17.856 270.698 18.2153 270.258 18.934C269.833 19.638 269.62 20.76 269.62 22.3C269.62 23.84 269.833 24.9693 270.258 25.688C270.698 26.392 271.292 26.744 272.04 26.744Z" fill="#363130"/>
<circle cx="37" cy="37" r="32" fill="#E4E4E4"/>
<g filter="url(#filter0_d_2_149)">
<circle cx="37" cy="37" r="25" fill="white"/>
<circle cx="37" cy="37" r="24.25" stroke="#319F1C" stroke-width="1.5"/>
</g>
<circle cx="53" cy="55" r="5" fill="#319F1C"/>
<path d="M46.4755 41.7089L43.6786 38.9119C42.6797 37.913 40.9816 38.3126 40.582 39.6112C40.2823 40.5102 39.2834 41.0097 38.3844 40.8099C36.3866 40.3104 33.6896 37.7133 33.1901 35.6156C32.8904 34.7165 33.4898 33.7176 34.3888 33.418C35.6874 33.0184 36.0869 31.3203 35.088 30.3214L32.2911 27.5244C31.492 26.8252 30.2933 26.8252 29.5941 27.5244L27.6961 29.4223C25.7982 31.4202 27.8959 36.7143 32.5908 41.4092C37.2856 46.1041 42.5798 48.3017 44.5776 46.3038L46.4755 44.4059C47.1748 43.6068 47.1748 42.4081 46.4755 41.7089Z" fill="#319F1C"/>
<path fill-rule="evenodd" clip-rule="evenodd" d="M130.484 64.7924C128.661 64.7924 126.866 64.3033 125.298 63.3855C125.131 63.2917 124.936 63.2381 124.749 63.2381C124.648 63.2381 124.555 63.2515 124.461 63.2783L121.044 64.2162L122.236 61.5966C122.397 61.2349 122.357 60.8262 122.123 60.5046C120.856 58.7426 120.18 56.659 120.18 54.4883C120.18 48.8069 124.802 44.1841 130.484 44.1841C136.165 44.1841 140.788 48.8069 140.788 54.4883C140.788 60.1696 136.165 64.7924 130.484 64.7924ZM130.484 42C123.603 42 118.002 47.601 118.002 54.4883C118.002 56.9068 118.686 59.2316 119.992 61.255L118.096 65.4289C117.922 65.8175 117.989 66.2663 118.263 66.5879C118.471 66.8358 118.779 66.9698 119.088 66.9698C119.188 66.9698 119.282 66.9564 119.382 66.9296L124.601 65.4959C126.41 66.4606 128.434 66.9698 130.484 66.9698C137.371 66.9698 142.972 61.3688 142.972 54.4883C142.972 47.601 137.371 42 130.484 42Z" fill="#319F1C"/>
<path fill-rule="evenodd" clip-rule="evenodd" d="M135.288 56.3575C134.765 56.0426 134.082 55.6942 133.466 55.9488C132.997 56.1364 132.695 56.88 132.387 57.2552C132.226 57.4495 132.039 57.483 131.797 57.3825C130.029 56.679 128.669 55.4932 127.69 53.8585C127.523 53.6106 127.55 53.4096 127.751 53.1751C128.045 52.8267 128.421 52.4314 128.501 51.9625C128.581 51.4935 128.36 50.9441 128.166 50.522C127.918 49.9927 127.637 49.229 127.108 48.9275C126.612 48.6528 125.969 48.8069 125.526 49.162C124.769 49.7784 124.408 50.7431 124.421 51.7012C124.421 51.9692 124.454 52.2371 124.515 52.5051C124.669 53.1349 124.964 53.7245 125.292 54.2806C125.54 54.7026 125.808 55.1113 126.096 55.5066C127.047 56.7996 128.226 57.9185 129.593 58.756C130.276 59.1713 131.013 59.5398 131.771 59.7877C132.628 60.0758 133.385 60.3639 134.31 60.1897C135.274 60.0088 136.226 59.4125 136.614 58.4813C136.728 58.2066 136.782 57.8984 136.715 57.6036C136.588 57.0073 135.77 56.6456 135.288 56.3575Z" fill="#319F1C"/>
<path fill-rule="evenodd" clip-rule="evenodd" d="M172.385 51.6408L171.168 52.1053L170.767 52.2575C170.351 52.3936 169.942 52.5859 169.526 52.738C168.997 52.9222 167.972 53.2907 167.972 53.9714C167.972 54.492 168.509 54.5881 168.885 54.7003L174.179 56.3261C175.108 56.6064 174.86 56.6785 175.348 56.3902C176.229 55.8536 177.086 55.2689 177.967 54.7403L180.266 53.2987C180.498 53.1545 180.69 53.0184 180.931 52.8742L189.124 47.7163C189.34 47.5882 189.581 47.404 189.845 47.42C190.486 47.452 189.997 47.9486 189.757 48.1408C189.428 48.4051 189.116 48.7255 188.804 48.9978L186.393 51.2083L186.377 51.2243L184.519 52.9303C184.158 53.2987 183.462 53.8433 183.085 54.2277L182.853 54.452L181.403 55.7655C181.051 56.1179 180.53 56.5264 180.218 56.8467L179.978 57.071L179.273 57.7197C178.76 58.2403 178.488 58.1842 178.496 58.8009C178.496 59.1614 178.32 60.8993 178.288 61.3158C178.216 62.1808 178.192 62.9977 178.103 63.8627C178.071 64.135 178.039 64.3913 178.039 64.7117C178.76 64.6877 179.353 64.071 179.833 63.5984C179.986 63.4382 180.138 63.27 180.306 63.1259L180.434 63.0138L181.427 62.0446L181.443 62.0286C181.692 61.8044 182.036 61.4039 182.268 61.2437L183.157 61.9005C183.678 62.325 184.759 63.0778 185.344 63.5183L188.371 65.7689C188.603 65.9291 189.14 66.1453 189.508 66.1453C189.765 66.1453 189.957 66.0252 190.109 65.905C190.261 65.7769 190.365 65.5927 190.454 65.4085C190.686 64.944 191.254 61.9806 191.375 61.3639C191.399 61.2437 191.439 61.1236 191.455 61.0275L193.705 50.4394C193.873 49.7667 193.962 49.0618 194.146 48.3651L194.29 47.7083C194.41 47.0355 194.827 45.4738 194.827 44.9532C194.827 44.2564 194.474 43.5195 193.705 43.5195C193.145 43.5195 191.767 44.1763 191.158 44.4005L190.75 44.5447L189.508 45.0252L189.108 45.1774L181.764 48.0127L181.363 48.1728L179.729 48.8056C179.457 48.9257 179.177 48.9978 178.912 49.1099L174.828 50.6877L174.427 50.8479C173.763 51.1362 173.074 51.3765 172.385 51.6408Z" fill="#319F1C"/>
<path fill-rule="evenodd" clip-rule="evenodd" d="M223.546 63.2042C224.022 63.4588 225.402 63.9948 225.469 64.2427L225.489 69.2139C225.991 69.1603 226.695 68.1017 226.996 67.7667C230.748 63.5392 229.113 65.2008 234.131 64.6715C235.445 64.5308 236.65 64.3767 237.937 63.9948C239.384 63.566 240.838 62.8291 241.615 61.7504C243.9 58.5613 243.786 53.1078 243.035 49.2822C242.58 46.9441 241.287 45.3227 239.089 44.3245C236.583 43.1788 231.753 42.7567 228.678 43.1855C225.75 43.5942 222.44 44.6059 221.013 47.3862C219.747 49.8718 219.58 54.6554 220.109 57.7775C220.497 60.0621 221.543 62.1122 223.546 63.2042ZM227.981 57.1879C226.407 55.4996 224.859 53.1547 224.015 50.8768C223.392 49.1952 224.243 47.6475 226.072 47.2053C226.735 47.0445 227.124 47.3795 227.492 47.7547C227.82 48.0897 228.155 48.4783 228.437 48.8736C228.718 49.2622 229.026 49.711 229.241 50.1264C230.152 51.8817 228.785 51.8214 228.269 52.6589C227.559 53.818 229.455 55.9485 230.185 56.5648C230.701 56.9936 232.182 58.0455 232.992 57.7842C233.448 57.6301 233.676 57.0606 234.038 56.7591C235.036 55.9217 236.141 56.9333 236.872 57.4291C237.294 57.7239 237.615 57.9785 238.024 58.3001C238.433 58.6283 238.821 59.0035 238.774 59.5864C238.687 60.6383 236.945 62.5812 235.324 62.0988C234.5 61.8509 233.287 61.2077 232.564 60.7722C230.775 59.7137 229.301 58.5881 227.981 57.1879ZM231.981 49.5368C231.592 49.4028 231.626 48.8736 231.981 48.7731C232.456 48.6324 233.703 49.0478 234.058 49.2153C235.197 49.7713 236.141 50.6825 236.557 51.9018C236.684 52.2837 237.059 53.8782 236.53 54.0256C236.007 54.1663 236.021 53.6974 235.981 53.3222C235.88 52.3909 235.512 51.2654 234.795 50.6356C233.77 49.7177 232.436 49.6976 231.981 49.5368ZM232.383 51.2989C232.209 51.1783 232.242 50.8768 232.363 50.7361C232.664 50.3944 233.877 50.6021 234.627 51.6807C234.996 52.2033 235.491 53.5902 234.44 53.4428C234.018 52.9001 234.373 52.1899 233.435 51.6472C233.113 51.4597 232.53 51.4061 232.383 51.2989ZM231.184 47.5738C231.063 47.3929 231.17 47.0914 231.385 46.991C231.632 46.857 232.818 47.0378 233.106 47.1048C235.445 47.6207 237.354 49.3559 238.218 51.6003C238.392 52.0492 239.009 54.508 238.413 54.7224C237.722 54.9703 237.836 53.9519 237.769 53.5098C237.669 52.9135 237.568 52.5048 237.401 51.9487C236.583 49.1818 234.527 48.2438 231.947 47.7815C231.713 47.7346 231.324 47.7815 231.184 47.5738Z" fill="#319F1C"/>
<defs>
<filter id="filter0_d_2_149" x="0" y="0" width="74" height="74" filterUnits="userSpaceOnUse" color-interpolation-filters="sRGB">
<feFlood flood-opacity="0" result="BackgroundImageFix"/>
<feColorMatrix in="SourceAlpha" type="matrix" values="0 0 0 0 0 0 0 0 0 0 0 0 0 0 0 0 0 0 127 0" result="hardAlpha"/>
<feOffset/>
<feGaussianBlur stdDeviation="6"/>
<feColorMatrix type="matrix" values="0 0 0 0 0.192157 0 0 0 0 0.623529 0 0 0 0 0.109804 0 0 0 1 0"/>
<feBlend mode="normal" in2="BackgroundImageFix" result="effect1_dropShadow_2_149"/>
<feBlend mode="normal" in="SourceGraphic" in2="effect1_dropShadow_2_149" result="shape"/>
</filter>
</defs>
</svg>
