<svg width="104" height="131" viewBox="0 0 104 131" fill="none" xmlns="http://www.w3.org/2000/svg">
<path d="M20.968 124.072C20.968 124.637 20.824 125.144 20.536 125.592C20.248 126.029 19.8587 126.376 19.368 126.632C18.888 126.877 18.36 127 17.784 127H12.424V115.64H17.896C18.4293 115.64 18.888 115.784 19.272 116.072C19.656 116.349 19.9547 116.712 20.168 117.16C20.3813 117.597 20.488 118.056 20.488 118.536C20.488 119.101 20.344 119.624 20.056 120.104C19.768 120.584 19.368 120.941 18.856 121.176C19.496 121.368 20.008 121.725 20.392 122.248C20.776 122.771 20.968 123.379 20.968 124.072ZM13.544 116.616V120.808H17.448C17.8213 120.808 18.152 120.712 18.44 120.52C18.7387 120.317 18.968 120.061 19.128 119.752C19.2987 119.432 19.384 119.085 19.384 118.712C19.384 118.328 19.304 117.976 19.144 117.656C18.984 117.336 18.7653 117.085 18.488 116.904C18.2107 116.712 17.896 116.616 17.544 116.616H13.544ZM19.848 123.88C19.848 123.507 19.7627 123.155 19.592 122.824C19.4213 122.493 19.1867 122.227 18.888 122.024C18.6 121.821 18.2693 121.72 17.896 121.72H13.544V126.024H17.784C18.168 126.024 18.5147 125.923 18.824 125.72C19.1333 125.517 19.3787 125.256 19.56 124.936C19.752 124.605 19.848 124.253 19.848 123.88ZM22.8403 127V118.68H23.9283V125.528L29.0003 118.664H29.9763V127H28.8883V120.264L23.8963 127H22.8403ZM31.4283 128.936V126.024H31.5723C31.8923 126.024 32.1803 125.885 32.4363 125.608C32.6923 125.331 32.9003 124.829 33.0603 124.104C33.2309 123.368 33.3323 122.328 33.3643 120.984L33.4443 118.664H38.8683V126.024H39.9883V128.936H39.0123V127H32.3883V128.936H31.4283ZM33.2203 126.024H37.7803V119.64H34.4203L34.3723 121.08C34.3189 122.573 34.1963 123.704 34.0043 124.472C33.8123 125.229 33.5509 125.747 33.2203 126.024ZM45.2375 127.16C44.4375 127.16 43.7228 126.963 43.0935 126.568C42.4642 126.173 41.9682 125.645 41.6055 124.984C41.2428 124.323 41.0615 123.597 41.0615 122.808C41.0615 122.029 41.2375 121.315 41.5895 120.664C41.9522 120.013 42.4482 119.496 43.0775 119.112C43.7068 118.717 44.4215 118.52 45.2215 118.52C46.0428 118.52 46.7628 118.717 47.3815 119.112C48.0002 119.507 48.4802 120.029 48.8215 120.68C49.1735 121.32 49.3495 122.024 49.3495 122.792C49.3495 122.963 49.3442 123.107 49.3335 123.224H42.1975C42.2508 123.821 42.4215 124.355 42.7095 124.824C42.9975 125.283 43.3655 125.651 43.8135 125.928C44.2615 126.195 44.7522 126.328 45.2855 126.328C45.8295 126.328 46.3415 126.189 46.8215 125.912C47.3015 125.635 47.6428 125.272 47.8455 124.824L48.7895 125.08C48.6188 125.485 48.3522 125.848 47.9895 126.168C47.6375 126.477 47.2268 126.723 46.7575 126.904C46.2882 127.075 45.7815 127.16 45.2375 127.16ZM42.1655 122.44H48.3255C48.2828 121.843 48.1175 121.315 47.8295 120.856C47.5415 120.387 47.1735 120.024 46.7255 119.768C46.2775 119.501 45.7815 119.368 45.2375 119.368C44.6935 119.368 44.1975 119.501 43.7495 119.768C43.3015 120.024 42.9335 120.387 42.6455 120.856C42.3682 121.315 42.2082 121.843 42.1655 122.44ZM54.5801 127.16C53.7801 127.16 53.0655 126.963 52.4361 126.568C51.8175 126.173 51.3321 125.651 50.9801 125C50.6281 124.339 50.4521 123.624 50.4521 122.856C50.4521 122.077 50.6281 121.363 50.9801 120.712C51.3428 120.051 51.8335 119.523 52.4521 119.128C53.0815 118.723 53.7908 118.52 54.5801 118.52C55.3801 118.52 56.0895 118.723 56.7081 119.128C57.3375 119.523 57.8281 120.051 58.1801 120.712C58.5428 121.363 58.7241 122.077 58.7241 122.856C58.7241 123.624 58.5481 124.339 58.1961 125C57.8441 125.651 57.3535 126.173 56.7241 126.568C56.1055 126.963 55.3908 127.16 54.5801 127.16ZM51.5561 122.872C51.5561 123.491 51.6895 124.056 51.9561 124.568C52.2335 125.069 52.6015 125.469 53.0601 125.768C53.5188 126.056 54.0255 126.2 54.5801 126.2C55.1348 126.2 55.6415 126.051 56.1001 125.752C56.5588 125.453 56.9268 125.048 57.2041 124.536C57.4815 124.024 57.6201 123.459 57.6201 122.84C57.6201 122.221 57.4815 121.656 57.2041 121.144C56.9268 120.632 56.5588 120.227 56.1001 119.928C55.6415 119.629 55.1348 119.48 54.5801 119.48C54.0361 119.48 53.5348 119.635 53.0761 119.944C52.6175 120.243 52.2495 120.648 51.9721 121.16C51.6948 121.672 51.5561 122.243 51.5561 122.872ZM64.3678 127.16C63.0238 127.16 62.0051 126.749 61.3118 125.928C60.6291 125.096 60.2878 123.949 60.2878 122.488C60.2878 121.453 60.3731 120.579 60.5438 119.864C60.7144 119.149 60.9651 118.557 61.2958 118.088C61.6264 117.619 62.0318 117.24 62.5118 116.952C63.0024 116.653 63.5624 116.408 64.1918 116.216L67.6958 115.064L67.7917 116.008L64.4158 117.112C63.7758 117.336 63.2371 117.608 62.7998 117.928C62.3731 118.248 62.0371 118.669 61.7918 119.192C61.5571 119.704 61.4078 120.36 61.3438 121.16C61.6104 120.541 62.0318 120.067 62.6078 119.736C63.1944 119.395 63.8664 119.224 64.6238 119.224C65.4344 119.224 66.1224 119.389 66.6878 119.72C67.2638 120.051 67.7011 120.509 67.9998 121.096C68.2984 121.683 68.4478 122.36 68.4478 123.128C68.4478 124.344 68.0958 125.32 67.3918 126.056C66.6984 126.792 65.6904 127.16 64.3678 127.16ZM64.3678 126.2C65.3171 126.2 66.0478 125.928 66.5598 125.384C67.0824 124.829 67.3438 124.093 67.3438 123.176C67.3438 122.28 67.0878 121.549 66.5758 120.984C66.0638 120.419 65.3278 120.136 64.3678 120.136C63.8131 120.136 63.3118 120.253 62.8638 120.488C62.4158 120.723 62.0584 121.064 61.7918 121.512C61.5358 121.96 61.4078 122.515 61.4078 123.176C61.4078 124.051 61.6584 124.776 62.1598 125.352C62.6718 125.917 63.4078 126.2 64.3678 126.2ZM69.4781 127.048V126.056C69.7555 126.056 70.0061 125.981 70.2301 125.832C70.4648 125.683 70.6675 125.421 70.8381 125.048C71.0195 124.675 71.1635 124.157 71.2701 123.496C71.3768 122.835 71.4461 121.997 71.4781 120.984L71.5741 118.664H76.9821V127H75.8941V119.64H72.5341L72.5021 121.08C72.4488 122.627 72.3048 123.832 72.0701 124.696C71.8355 125.56 71.4995 126.168 71.0621 126.52C70.6355 126.861 70.1075 127.037 69.4781 127.048ZM82.9395 127.16C82.1395 127.16 81.4248 126.963 80.7955 126.568C80.1768 126.173 79.6915 125.651 79.3395 125C78.9875 124.339 78.8115 123.624 78.8115 122.856C78.8115 122.077 78.9875 121.363 79.3395 120.712C79.7022 120.051 80.1928 119.523 80.8115 119.128C81.4408 118.723 82.1502 118.52 82.9395 118.52C83.7395 118.52 84.4488 118.723 85.0675 119.128C85.6968 119.523 86.1875 120.051 86.5395 120.712C86.9022 121.363 87.0835 122.077 87.0835 122.856C87.0835 123.624 86.9075 124.339 86.5555 125C86.2035 125.651 85.7128 126.173 85.0835 126.568C84.4648 126.963 83.7502 127.16 82.9395 127.16ZM79.9155 122.872C79.9155 123.491 80.0488 124.056 80.3155 124.568C80.5928 125.069 80.9608 125.469 81.4195 125.768C81.8782 126.056 82.3848 126.2 82.9395 126.2C83.4942 126.2 84.0008 126.051 84.4595 125.752C84.9182 125.453 85.2862 125.048 85.5635 124.536C85.8408 124.024 85.9795 123.459 85.9795 122.84C85.9795 122.221 85.8408 121.656 85.5635 121.144C85.2862 120.632 84.9182 120.227 84.4595 119.928C84.0008 119.629 83.4942 119.48 82.9395 119.48C82.3955 119.48 81.8942 119.635 81.4355 119.944C80.9768 120.243 80.6088 120.648 80.3315 121.16C80.0542 121.672 79.9155 122.243 79.9155 122.872ZM88.8871 127V118.664H93.8631V119.64H89.9751V127H88.8871Z" fill="black"/>
<g filter="url(#filter0_d_2_335)">
<circle cx="50" cy="50" r="44" fill="white"/>
<circle cx="50" cy="50" r="43.5" stroke="#319F1C"/>
</g>
<g clip-path="url(#clip0_2_335)">
<path d="M71 44.8489L65.1406 47.5802V60.8268L71 63.5581V44.8489Z" fill="#319F1C"/>
<path d="M62.7969 47.9503H58.2829V42.8152C56.5329 44.7806 53.9853 46.0207 51.1529 46.0207C47.8564 46.0207 44.945 44.3413 43.2289 41.7932C41.9582 44.2992 39.3565 46.0207 36.3599 46.0207C34.278 46.0207 32.3869 45.1894 31.0001 43.8418V64.7299H58.283V60.4566H62.7969V47.9503ZM35.6879 52.7765H53.5951V60.0421H35.6879V52.7765Z" fill="#319F1C"/>
<path d="M36.3598 43.677C39.3112 43.677 41.7124 41.276 41.7124 38.3245C41.7124 35.3732 39.3113 32.972 36.3598 32.972C33.4085 32.972 31.0073 35.3731 31.0073 38.3245C31.0074 41.2759 33.4085 43.677 36.3598 43.677Z" fill="#319F1C"/>
<path d="M52.3813 43.5591C56.3 42.8788 58.9252 39.1506 58.2449 35.2318C57.5646 31.3131 53.8364 28.6879 49.9177 29.3682C45.999 30.0485 43.3737 33.7767 44.054 37.6954C44.7343 41.6142 48.4626 44.2394 52.3813 43.5591Z" fill="#319F1C"/>
<path d="M38.0317 55.1202H40.6098V57.6984H38.0317V55.1202Z" fill="#319F1C"/>
<path d="M42.9536 55.1202H51.2514V57.6984H42.9536V55.1202Z" fill="#319F1C"/>
</g>
<defs>
<filter id="filter0_d_2_335" x="0" y="0" width="104" height="104" filterUnits="userSpaceOnUse" color-interpolation-filters="sRGB">
<feFlood flood-opacity="0" result="BackgroundImageFix"/>
<feColorMatrix in="SourceAlpha" type="matrix" values="0 0 0 0 0 0 0 0 0 0 0 0 0 0 0 0 0 0 127 0" result="hardAlpha"/>
<feOffset dx="2" dy="2"/>
<feGaussianBlur stdDeviation="4"/>
<feColorMatrix type="matrix" values="0 0 0 0 0 0 0 0 0 0 0 0 0 0 0 0 0 0 0.25 0"/>
<feBlend mode="normal" in2="BackgroundImageFix" result="effect1_dropShadow_2_335"/>
<feBlend mode="normal" in="SourceGraphic" in2="effect1_dropShadow_2_335" result="shape"/>
</filter>
<clipPath id="clip0_2_335">
<rect width="40" height="40" fill="white" transform="translate(31 27)"/>
</clipPath>
</defs>
</svg>
